<svg xmlns="http://www.w3.org/2000/svg" viewBox="0 0 240 140" fill="#5c1a22">
<path d="M60 126V72h120v54z"/>
<path d="M96 72V44h48v28z"/>
<path d="M100 44c6-10 14-16 20-16s14 6 20 16z"/>
<path d="M28 126V64h34v62zM178 126V64h34v62z"/>
<path d="M28 64c3-16 9-24 17-24s14 8 17 24zM178 64c3-16 9-24 17-24s14 8 17 24z"/>
<circle cx="45" cy="34" r="4"/><circle cx="195" cy="34" r="4"/>
<rect x="20" y="122" width="200" height="8"/>
<g fill="#fff" opacity=".5">
  <rect x="76" y="88" width="10" height="26" rx="5"/><rect x="96" y="88" width="10" height="26" rx="5"/>
  <rect x="134" y="88" width="10" height="26" rx="5"/><rect x="154" y="88" width="10" height="26" rx="5"/>
  <rect x="40" y="82" width="10" height="24" rx="5"/><rect x="190" y="82" width="10" height="24" rx="5"/>
  <rect x="114" y="52" width="12" height="18" rx="6"/>
</g>
</svg>
